<svg xmlns="http://www.w3.org/2000/svg" width="448" height="630" viewBox="0 0 448 630">
  <path fill="#f9a83a"
    d="M379.345 386.496c.55 41.327-17.766 81.748-50.273 110.547-27.604 24.72-62.877 38.372-99.17 38.372-6.246-.067-12.557-.42-18.738-1.276a90 90 0 0 1-4.465 5.71c-13.98 16.406-33.252 26.13-54.286 27.389a58 58 0 0 1-4.806.201c-41.05 0-75.58-33.367-78.638-75.887-.064-.84-.129-1.696-.129-2.603l-.065-.638c-1.359-30.278-.68-55.198.13-70.765 1.02-18.019 1.57-48.65 1.634-55.266.34-20.705 7.993-39.497 20.42-53.804-6.181-22.167-8.155-48.784-4.353-80.253l.486-4.585c.064-.353.064-.705.13-1.058 2.167-18.439 5.42-45.693 18.785-71.74 19.95-39.143 56.583-61.612 100.417-61.612 2.443 0 5.016.067 7.67.218 4.61.285 9.287.84 13.834 1.696 14.238-13.317 33.17-21.562 53.93-21.125 42.878.772 77.747 37.515 77.747 81.882 0 .974-3.802 119.481-5.63 129.759-1.085 6.414-2.913 12.527-5.292 18.304 19.74 23.661 30.387 53.166 30.662 86.534"
    style="fill:#fff;fill-rule:evenodd;stroke:none;stroke-width:1" />
  <path fill="#fff"
    d="M208.175 301.93c-20.339-3.292-31.196-17.415-25.808-61.11l.631-5.273c4.53-37.969 8.333-46.416 25.938-45.425 5.145.336 11.083 3.711 17.005 8.766 5.502 6.6 17.718 15.147 24.595 32.074 4.935 12.427 6.634 20.538 7.346 29.254l1.084 10.697v-.05c1.456 7.321 6.86 13.333 14.336 14.643 9.628 1.83 18.915-4.82 20.598-14.812.226-1.192 4.58-116.274 4.58-118.154 0-10.143-7.832-18.372-17.67-18.54-9.806-.05-17.766 8.229-17.766 18.338 0 .218-.049 16.104-.373 32.125-13.98-15.785-31.875-29.925-51.907-31.15-53.622-2.973-59.48 48.195-63.007 77.683l-.534 5.223c-7.233 58.271 11.504 95.03 55.5 102.168 47.813 7.792 79.737 19.194 80.029 49.723.178 11.873-5.842 24.048-16.343 33.418-12.653 11.168-29.578 16.189-45.532 13.468-4.951-.789-9.595-2.2-14.045-3.728-6.262-3.627-22.038-13.585-30.047-25.088-6.747-9.707-9.094-24.955-9.822-34.627.081-4.333.097-7.204.097-7.524.178-10.193-7.702-18.489-17.41-18.724-9.854-.235-17.944 7.994-18.122 18.17 0 .336-.437 36.39-1.715 58.104-1.829 34.98 0 64.602 0 65.895.728 10.16 9.142 17.817 18.947 17.146 9.773-.538 17.216-9.337 16.537-19.514 0-.168-.874-14.526-.76-34.358 13.008 8.615 30.095 16.994 50.434 20.588 26.536 4.618 53.671-3.342 74.398-21.83 18.56-16.474 29.19-38.994 28.899-61.782-.631-68.028-74.609-79.984-110.093-85.795"
    style="fill:#161820;fill-opacity:1;fill-rule:evenodd;stroke:none;stroke-width:1" />
</svg>